{
	"asset":{
		"generator":"Khronos glTF Blender I/O v3.6.28",
		"version":"2.0"
	},
	"scene":0,
	"scenes":[
		{
			"name":"Scene",
			"nodes":[
				0,
				4,
				5
			]
		}
	],
	"nodes":[
		{
			"name":"Empty",
			"rotation":[
				0.7072880268096924,
				-0.0027392383199185133,
				-0.0030830216128379107,
				0.7069135308265686
			],
			"translation":[
				-5.349516868591309e-06,
				0,
				0
			]
		},
		{
			"mesh":0,
			"name":"Body",
			"scale":[
				0.5335071682929993,
				0.5335071682929993,
				0.5335071682929993
			],
			"translation":[
				0,
				-1.1460294723510742,
				0
			]
		},
		{
			"mesh":1,
			"name":"Head"
		},
		{
			"mesh":2,
			"name":"TShirt",
			"scale":[
				0.5335071682929993,
				0.5335071682929993,
				0.5335071682929993
			],
			"translation":[
				0,
				-1.1460294723510742,
				0
			]
		},
		{
			"children":[
				1,
				2,
				3
			],
			"name":"Frog"
		},
		{
			"name":"Empty.001",
			"rotation":[
				0.7072880268096924,
				-0.0027392383199185133,
				-0.0030830216128379107,
				0.7069135308265686
			],
			"translation":[
				4.210602283477783,
				0,
				0
			]
		}
	],
	"materials":[
		{
			"doubleSided":true,
			"name":"Froggy_material",
			"pbrMetallicRoughness":{
				"baseColorTexture":{
					"index":0
				},
				"metallicFactor":0,
				"roughnessFactor":0.5
			}
		}
	],
	"meshes":[
		{
			"name":"Roundcube",
			"primitives":[
				{
					"attributes":{
						"POSITION":0,
						"NORMAL":1,
						"TEXCOORD_0":2
					},
					"indices":3,
					"material":0
				}
			]
		},
		{
			"name":"Roundcube.001",
			"primitives":[
				{
					"attributes":{
						"POSITION":4,
						"NORMAL":5,
						"TEXCOORD_0":6
					},
					"indices":7,
					"material":0
				}
			]
		},
		{
			"name":"Roundcube.004",
			"primitives":[
				{
					"attributes":{
						"POSITION":8,
						"NORMAL":9,
						"TEXCOORD_0":10
					},
					"indices":11,
					"material":0
				}
			]
		}
	],
	"textures":[
		{
			"sampler":0,
			"source":0
		}
	],
	"images":[
		{
			"mimeType":"image/png",
			"name":"Froggy_texture",
			"uri":"Froggy_texture.png"
		}
	],
	"accessors":[
		{
			"bufferView":0,
			"componentType":5126,
			"count":488,
			"max":[
				1.9643659591674805,
				0.8628686666488647,
				0.9968021512031555
			],
			"min":[
				-1.9643659591674805,
				-2.1716959476470947,
				-0.9811410903930664
			],
			"type":"VEC3"
		},
		{
			"bufferView":1,
			"componentType":5126,
			"count":488,
			"type":"VEC3"
		},
		{
			"bufferView":2,
			"componentType":5126,
			"count":488,
			"type":"VEC2"
		},
		{
			"bufferView":3,
			"componentType":5123,
			"count":2232,
			"type":"SCALAR"
		},
		{
			"bufferView":4,
			"componentType":5126,
			"count":163,
			"max":[
				1.182212471961975,
				1.3253287076950073,
				0.99953293800354
			],
			"min":[
				-1.182212471961975,
				-0.8273428082466125,
				-1.00046706199646
			],
			"type":"VEC3"
		},
		{
			"bufferView":5,
			"componentType":5126,
			"count":163,
			"type":"VEC3"
		},
		{
			"bufferView":6,
			"componentType":5126,
			"count":163,
			"type":"VEC2"
		},
		{
			"bufferView":7,
			"componentType":5123,
			"count":864,
			"type":"SCALAR"
		},
		{
			"bufferView":8,
			"componentType":5126,
			"count":125,
			"max":[
				1.4253149032592773,
				0.9447678923606873,
				1.2320009469985962
			],
			"min":[
				-1.4253149032592773,
				-1.0898449420928955,
				-1.176163911819458
			],
			"type":"VEC3"
		},
		{
			"bufferView":9,
			"componentType":5126,
			"count":125,
			"type":"VEC3"
		},
		{
			"bufferView":10,
			"componentType":5126,
			"count":125,
			"type":"VEC2"
		},
		{
			"bufferView":11,
			"componentType":5123,
			"count":576,
			"type":"SCALAR"
		}
	],
	"bufferViews":[
		{
			"buffer":0,
			"byteLength":5856,
			"byteOffset":0,
			"target":34962
		},
		{
			"buffer":0,
			"byteLength":5856,
			"byteOffset":5856,
			"target":34962
		},
		{
			"buffer":0,
			"byteLength":3904,
			"byteOffset":11712,
			"target":34962
		},
		{
			"buffer":0,
			"byteLength":4464,
			"byteOffset":15616,
			"target":34963
		},
		{
			"buffer":0,
			"byteLength":1956,
			"byteOffset":20080,
			"target":34962
		},
		{
			"buffer":0,
			"byteLength":1956,
			"byteOffset":22036,
			"target":34962
		},
		{
			"buffer":0,
			"byteLength":1304,
			"byteOffset":23992,
			"target":34962
		},
		{
			"buffer":0,
			"byteLength":1728,
			"byteOffset":25296,
			"target":34963
		},
		{
			"buffer":0,
			"byteLength":1500,
			"byteOffset":27024,
			"target":34962
		},
		{
			"buffer":0,
			"byteLength":1500,
			"byteOffset":28524,
			"target":34962
		},
		{
			"buffer":0,
			"byteLength":1000,
			"byteOffset":30024,
			"target":34962
		},
		{
			"buffer":0,
			"byteLength":1152,
			"byteOffset":31024,
			"target":34963
		}
	],
	"samplers":[
		{
			"magFilter":9728,
			"minFilter":9984
		}
	],
	"buffers":[
		{
			"byteLength":32176,
			"uri":"Fog2.bin"
		}
	]
}
